<?xml version="1.0" standalone="no"?>
<!DOCTYPE svg PUBLIC "-//W3C//DTD SVG 20010904//EN"
 "http://www.w3.org/TR/2001/REC-SVG-20010904/DTD/svg10.dtd">
<svg version="1.0" xmlns="http://www.w3.org/2000/svg"
 width="913.000000pt" height="1458.000000pt" viewBox="0 0 913.000000 1458.000000"
 preserveAspectRatio="xMidYMid meet">
<metadata>
Created by potrace 1.16, written by Peter Selinger 2001-2019
</metadata>
<g transform="translate(0.000000,1458.000000) scale(0.100000,-0.100000)"
fill="#000000" stroke="none">
<path d="M0 7290 l0 -7290 4565 0 4565 0 0 7290 0 7290 -1910 0 c-1690 0
-1910 -2 -1910 -15 0 -8 487 -1312 1081 -2897 595 -1586 1084 -2893 1087
-2905 l4 -23 -2181 0 c-1829 0 -2182 2 -2187 14 -3 7 482 1311 1077 2897 595
1586 1084 2894 1087 2907 l4 22 -2641 0 -2641 0 0 -7290z"/>
<path d="M5285 14543 c-59 -151 -2165 -5776 -2165 -5783 0 -7 735 -10 2176
-10 2068 0 2176 1 2171 18 -6 23 -2168 5786 -2172 5790 -1 2 -6 -5 -10 -15z"/>
</g>
</svg>
