<?xml version="1.0" standalone="no"?>
<!DOCTYPE svg PUBLIC "-//W3C//DTD SVG 20010904//EN"
 "http://www.w3.org/TR/2001/REC-SVG-20010904/DTD/svg10.dtd">
<svg version="1.0" xmlns="http://www.w3.org/2000/svg"
 width="219.000000pt" height="456.000000pt" viewBox="0 0 219.000000 456.000000"
 preserveAspectRatio="xMidYMid meet">
<metadata>
Created by potrace 1.16, written by Peter Selinger 2001-2019
</metadata>
<g transform="translate(0.000000,456.000000) scale(0.100000,-0.100000)"
fill="#000000" stroke="none">
<path d="M0 2280 l0 -2280 70 0 70 0 0 2234 c0 1851 2 2235 13 2245 10 8 273
10 938 8 l924 -2 3 -2242 2 -2243 85 0 85 0 0 2280 0 2280 -1095 0 -1095 0 0
-2280z"/>
<path d="M156 4473 c-3 -3 -6 -1011 -6 -2240 l0 -2233 930 0 930 0 0 2240 0
2240 -924 0 c-507 0 -926 -3 -930 -7z m630 -100 c50 -49 100 -101 111 -117
l21 -30 43 93 c24 52 45 89 46 84 6 -16 -79 -183 -92 -183 -6 0 -26 20 -43 44
-27 38 -182 186 -194 186 -3 0 -1 -21 3 -47 9 -58 11 -195 3 -217 -9 -24 -100
-19 -199 11 -18 5 -18 4 -6 -11 21 -26 101 -168 101 -180 -1 -13 -208 -102
-217 -92 -3 3 -1 6 5 6 6 0 40 13 74 28 35 16 78 34 96 41 17 8 32 14 32 16 0
5 -89 157 -100 170 -23 28 2 34 69 19 35 -8 80 -14 100 -12 l36 3 3 76 c1 42
-1 101 -6 132 -15 93 -2 91 114 -20z m273 -98 c6 -41 8 -81 5 -89 -9 -23 10
-26 64 -9 28 9 55 14 58 10 4 -3 -8 -43 -26 -87 -18 -44 -34 -79 -36 -77 -2 2
9 37 26 77 17 40 28 75 26 78 -3 2 -28 -4 -56 -13 -28 -9 -54 -14 -58 -11 -3
4 -7 36 -9 72 -1 36 -9 93 -18 126 -18 72 -18 86 0 36 8 -21 19 -72 24 -113z
m-164 -115 c-43 -7 -40 -7 22 -5 50 2 77 -1 90 -11 16 -13 16 -13 -8 -5 -14 5
-46 7 -71 4 -26 -3 -64 -2 -85 2 -32 6 -35 9 -18 15 11 5 43 8 70 8 l50 -1
-50 -7z m-72 -20 c7 -1 -1 -8 -18 -17 -43 -22 -92 -71 -106 -105 -9 -22 -14
-26 -21 -16 -5 8 -7 -2 -3 -27 4 -37 4 -38 -5 -10 -11 35 -1 72 30 112 29 38
82 74 98 68 8 -3 19 -5 25 -5z m175 -14 c27 -14 71 -56 59 -56 -4 0 1 -9 10
-20 10 -11 21 -20 25 -20 10 0 -15 43 -46 80 l-21 25 24 -20 c21 -18 51 -64
52 -82 0 -5 5 -14 11 -20 8 -9 4 -15 -13 -22 -13 -5 -18 -10 -11 -10 6 -1 12
-9 13 -18 0 -14 2 -13 9 5 5 12 12 22 14 22 12 0 87 -33 83 -36 -2 -3 -20 3
-40 11 -46 19 -47 19 -47 -2 0 -10 11 -26 24 -35 21 -15 26 -16 36 -3 7 8 18
15 24 15 6 0 -1 -12 -16 -25 -23 -20 -28 -32 -28 -72 0 -26 -7 -56 -15 -67
-12 -16 -12 -20 1 -33 20 -20 14 -46 -14 -58 -22 -10 -24 -14 -36 -66 -5 -21
-2 -28 14 -32 32 -8 25 -48 -15 -80 -19 -15 -35 -34 -35 -42 0 -20 -48 -73
-81 -90 -15 -8 -39 -15 -53 -15 -14 0 -27 -4 -30 -8 -7 -11 20 -25 119 -60 56
-20 151 -73 315 -176 129 -81 237 -152 239 -157 3 -11 -59 26 -346 207 -106
66 -189 111 -238 127 -73 25 -90 26 -61 3 12 -9 75 -148 93 -206 4 -13 4 -13
-6 0 -14 20 -15 -4 -1 -31 6 -10 8 -19 5 -19 -4 0 -22 37 -56 115 -30 72 -39
100 -33 117 3 10 0 18 -6 18 -13 0 -13 -27 21 -689 10 -212 19 -421 19 -465 0
-45 4 -96 9 -114 6 -18 15 -85 21 -150 26 -270 56 -411 119 -555 11 -26 16
-45 11 -42 -16 10 -12 -12 6 -29 8 -9 11 -16 5 -16 -20 0 -72 118 -65 148 4
19 3 23 -4 13 -7 -10 -14 -1 -26 36 -9 28 -14 56 -12 64 3 8 -3 66 -13 129
-14 90 -19 106 -22 75 -2 -22 -5 16 -6 85 -1 69 -7 150 -13 180 -6 30 -14 101
-17 158 l-5 102 -72 0 c-74 0 -116 -16 -102 -38 4 -7 23 -12 43 -12 30 0 35 3
30 20 -3 11 -1 20 4 20 5 0 9 -11 9 -25 0 -23 4 -25 43 -26 l42 -2 -50 -7
c-27 -5 -66 -8 -85 -8 l-35 1 40 7 c33 6 29 7 -20 5 -33 -2 -76 0 -95 5 -30 8
-27 8 16 4 l51 -5 0 30 c0 31 -16 41 -67 41 -25 0 -27 -6 -54 -117 -34 -138
-133 -479 -148 -507 -6 -11 -12 -43 -13 -72 -2 -29 -8 -61 -15 -71 -9 -15 -10
-12 -5 17 4 26 -1 19 -18 -25 -32 -83 -73 -166 -103 -210 -14 -21 -23 -39 -21
-41 5 -5 163 39 171 47 3 3 6 80 6 172 1 92 5 169 8 171 8 5 7 -224 -3 -731
-4 -193 -4 -360 0 -372 5 -17 14 -21 52 -21 41 0 44 1 32 17 -8 9 -9 14 -2 10
16 -10 22 50 33 388 16 470 47 1103 56 1117 3 4 27 8 53 8 48 0 48 0 54 -37 4
-21 7 -192 8 -381 0 -193 5 -342 10 -342 5 0 10 -165 11 -378 l3 -377 40 -3
c82 -5 85 -7 85 -62 0 -58 -18 -73 -78 -68 l-37 3 -3 63 c-2 34 -7 62 -12 62
-6 0 -11 150 -12 378 l-3 377 -76 3 -77 3 -6 -168 c-8 -217 -26 -582 -33 -656
-4 -50 -2 -60 16 -75 25 -20 63 -122 64 -174 1 -26 -5 -44 -22 -62 -31 -32
-46 -32 -107 0 -73 38 -94 62 -94 103 0 47 26 149 35 139 2 -2 -2 -26 -10 -53
-31 -102 -18 -129 88 -185 l48 -25 30 34 c32 35 32 32 8 122 -5 20 -19 51 -32
70 -20 30 -28 34 -59 31 -49 -4 -70 19 -67 72 1 23 -1 49 -5 59 -5 10 -5 182
0 382 l9 365 -21 0 c-12 0 -52 -9 -89 -21 -37 -11 -69 -18 -72 -15 -3 3 -14
-5 -25 -17 -25 -28 -16 -11 42 83 25 41 56 98 68 127 58 137 161 462 217 683
40 157 77 391 65 405 -11 13 -75 224 -93 307 -10 44 -9 50 14 75 53 59 53 57
18 112 -35 59 -36 50 19 219 26 81 38 108 43 95 7 -17 8 -17 9 2 1 11 4 15 6
10 2 -6 -9 -49 -25 -95 -16 -47 -30 -76 -31 -65 -2 25 -28 -40 -28 -70 0 -13
5 -7 13 15 16 41 20 27 4 -17 -9 -27 -6 -37 20 -80 17 -28 31 -58 31 -68 0
-10 -16 -38 -36 -62 l-36 -44 17 -62 c9 -33 19 -68 22 -76 4 -14 4 -14 -6 -1
-14 20 -13 5 3 -55 10 -35 15 -42 16 -25 1 19 5 15 16 -20 7 -25 13 -52 12
-60 -2 -8 1 -20 5 -27 4 -7 3 -42 -3 -78 -6 -37 -8 -83 -6 -103 5 -30 4 -32
-3 -12 l-9 25 -1 -25 c-1 -34 14 -58 22 -36 8 20 27 21 27 1 0 -24 38 -32 123
-27 l77 4 1 32 2 31 7 -35 c5 -21 6 0 4 55 -3 50 -11 221 -19 380 -8 160 -17
367 -21 462 -6 151 -9 171 -23 166 -14 -4 -14 -3 -1 6 13 9 13 11 0 11 -13 0
-13 1 0 11 11 8 7 9 -16 4 -30 -6 -104 16 -104 30 0 3 9 1 21 -5 11 -6 25 -10
31 -8 6 2 -11 14 -39 26 -51 22 -83 56 -83 89 0 11 7 4 19 -17 29 -55 145
-110 216 -102 42 5 100 52 125 103 11 21 31 46 45 55 32 21 32 41 0 56 -16 7
-22 15 -16 22 13 18 21 75 11 81 -6 3 -10 -4 -10 -17 0 -18 -2 -20 -9 -8 -6 8
-7 18 -5 22 3 4 -2 8 -11 8 -10 0 -13 -5 -9 -12 4 -6 3 -8 -4 -4 -7 4 -10 -3
-9 -21 2 -22 -3 -29 -20 -31 -25 -4 -48 26 -57 73 -5 24 -4 26 3 10 l10 -20 1
20 c1 15 4 12 15 -12 8 -18 18 -33 23 -33 14 0 25 31 23 63 -2 26 -1 27 26 21
37 -9 46 -18 11 -12 -16 3 -28 1 -28 -4 0 -6 15 -8 33 -6 31 3 33 2 29 -20 -4
-22 -3 -23 16 -13 29 16 33 25 18 46 -9 13 -28 19 -65 20 l-51 2 -2 -36 -1
-36 -4 35 c-3 19 -8 39 -13 45 -4 5 -7 35 -5 65 2 40 -1 58 -13 66 -11 8 -12
13 -3 18 6 4 14 0 17 -9 6 -14 8 -14 19 2 7 9 34 20 61 24 l49 7 -52 -1 c-28
-1 -49 1 -46 6 2 4 17 7 34 7 16 0 29 4 29 10 0 12 -86 50 -115 50 -13 0 -31
3 -40 6 -24 10 2 24 40 23 30 -2 30 -2 -5 -10 -31 -7 -30 -8 14 -5 28 2 59 -2
75 -10 38 -20 61 -18 31 3 -14 9 -27 19 -30 22 -3 3 -11 6 -17 7 -56 4 -58 6
-25 15 29 9 32 12 21 25 -7 9 -29 24 -48 34 -20 11 -32 19 -28 20 4 0 20 -6
35 -14z m19 -52 c-7 -7 -87 -8 -93 -1 -3 3 18 5 46 5 29 1 50 -1 47 -4z m-70
-18 c1 -1 -15 -7 -35 -13 -31 -10 -34 -9 -19 2 14 10 15 14 5 19 -7 3 1 3 17
-1 17 -3 31 -6 32 -7z m-67 -1 c0 -2 -13 -11 -30 -20 -38 -19 -40 -11 -2 9 31
17 32 18 32 11z m-10 -30 c0 -10 -59 -35 -72 -30 -9 4 -14 -2 -15 -15 -2 -23
1 -24 29 -9 16 8 19 8 13 -1 -5 -8 -2 -10 11 -6 11 3 26 1 34 -5 12 -8 9 -9
-9 -4 -16 5 -21 4 -17 -4 4 -6 13 -11 19 -11 7 0 29 -5 50 -11 30 -8 42 -18
53 -44 8 -19 14 -42 14 -52 -1 -10 -7 0 -15 21 -18 50 -32 63 -76 71 -30 5
-41 2 -67 -20 -42 -35 -43 -76 -3 -116 33 -33 68 -37 109 -13 l27 16 -24 -21
c-17 -15 -19 -21 -8 -21 9 0 25 12 36 26 12 15 21 22 21 17 0 -5 -10 -19 -23
-31 -22 -20 -28 -21 -78 -12 -66 13 -89 34 -97 91 l-6 44 -7 -35 c-6 -34 -6
-34 -8 -5 0 17 4 37 9 45 8 12 10 12 10 1 0 -8 9 -2 21 13 11 14 28 26 37 26
11 0 13 3 5 11 -8 8 -17 8 -32 -1 -31 -16 -58 -4 -58 25 0 26 9 37 40 48 11 4
16 3 12 -3 -9 -14 6 -12 35 5 28 16 30 17 30 10z m11 -26 c-18 -11 -35 -18
-38 -15 -5 5 46 35 62 36 6 0 -5 -9 -24 -21z m886 -21 c8 -12 32 -86 76 -243
14 -47 13 -52 -4 -74 -11 -13 -19 -19 -19 -13 0 5 6 15 14 21 16 13 18 5 -41
206 -15 50 -30 94 -33 98 -4 5 -21 5 -37 0 l-29 -8 42 -165 c23 -91 43 -159
43 -152 1 6 9 12 19 11 11 0 12 -2 4 -6 -9 -4 -10 -8 -2 -18 8 -10 7 -21 -5
-44 -16 -32 -9 -40 15 -18 12 10 12 9 2 -4 -17 -22 7 -32 32 -13 14 9 17 20
12 40 -5 18 -2 32 10 45 19 21 6 26 -16 7 -12 -11 -12 -10 -1 5 14 18 41 23
41 8 0 -5 -7 -14 -15 -21 -8 -7 -15 -20 -15 -28 0 -12 4 -11 16 6 17 25 44 29
44 7 0 -8 4 -15 9 -15 5 0 18 -17 29 -38 17 -33 18 -44 8 -96 -7 -32 -19 -62
-27 -67 -19 -10 -59 15 -59 38 0 11 7 7 21 -11 19 -25 23 -26 37 -13 19 19 9
47 -17 47 -11 0 -30 14 -42 32 -13 17 -18 28 -11 24 7 -4 12 -3 12 2 0 12 -29
24 -40 17 -4 -3 -6 -14 -3 -25 3 -11 9 -18 13 -15 5 3 12 0 16 -6 5 -8 3 -9
-6 -4 -10 6 -12 4 -7 -9 5 -12 3 -15 -6 -9 -6 4 -22 6 -34 5 -26 -4 -69 23
-75 46 -3 10 -2 26 2 37 4 11 4 25 0 30 -11 15 -33 126 -26 132 3 4 6 0 6 -8
0 -8 5 -31 11 -52 11 -39 29 -42 29 -4 0 18 -2 19 -10 7 -7 -11 -8 -5 -4 20 4
27 3 31 -5 20 -8 -11 -10 -7 -5 20 5 28 3 32 -6 20 -10 -13 -11 -12 -6 4 8 22
-14 127 -24 121 -4 -2 -5 7 -2 22 3 16 1 24 -5 20 -6 -4 -8 3 -5 18 4 23 -7
33 -20 19 -4 -3 2 -36 13 -74 10 -38 16 -84 14 -102 -5 -28 -4 -30 4 -10 15
32 22 27 10 -7 -9 -27 -14 -29 -82 -35 -66 -6 -73 -5 -89 15 -41 50 -7 87 85
91 31 2 57 6 57 9 0 3 -7 29 -16 58 -17 60 -13 69 38 81 48 12 55 11 65 -2z
m-1099 -83 c0 -16 -2 -15 -8 5 -5 15 -7 -5 -5 -55 l4 -80 -9 65 c-5 36 -6 83
-2 105 6 40 6 40 13 10 4 -16 7 -39 7 -50z m259 49 c-3 -3 -12 -4 -19 -1 -8 3
-5 6 6 6 11 1 17 -2 13 -5z m-455 -91 c53 -26 97 -54 97 -61 1 -7 -28 -27 -64
-44 -36 -18 -65 -35 -65 -38 0 -5 114 -70 124 -70 3 0 6 9 6 21 0 12 13 33 29
48 25 24 30 37 34 87 l3 59 3 -65 c2 -47 5 -59 11 -45 8 19 9 19 9 -2 1 -17
-5 -23 -19 -23 -53 0 -83 -91 -39 -118 12 -7 23 -11 26 -8 3 2 -4 11 -16 18
-13 8 -20 22 -20 38 2 24 2 24 6 2 3 -14 9 -20 16 -16 7 4 9 4 5 -1 -11 -12
11 -35 33 -35 23 0 24 -10 4 -56 -8 -20 -12 -41 -8 -48 3 -6 3 -8 -2 -4 -9 9
-35 -9 -35 -23 0 -5 14 -2 30 6 17 9 28 20 25 25 -3 5 -3 21 1 36 7 26 8 27
15 7 13 -35 -1 -63 -38 -78 -44 -19 -43 -19 -43 3 0 11 9 27 20 37 28 26 16
35 -46 35 -62 0 -67 10 -28 51 l26 27 -71 38 c-40 22 -71 46 -71 54 0 9 27 29
67 49 l66 32 -99 50 c-103 53 -113 59 -98 59 5 1 53 -21 106 -47z m486 -35
c-6 -18 -28 -21 -28 -4 0 9 7 16 16 16 9 0 14 -5 12 -12z m-157 -55 c13 -16
12 -17 -3 -4 -10 7 -18 15 -18 17 0 8 8 3 21 -13z m0 -30 c11 -15 11 -16 -1
-5 -8 6 -19 12 -24 12 -6 -1 0 -10 13 -20 13 -11 19 -20 13 -20 -13 0 -42 28
-42 41 0 15 27 10 41 -8z m92 0 c-7 -2 -21 -2 -30 0 -10 3 -4 5 12 5 17 0 24
-2 18 -5z m228 -26 c-10 -9 -11 -8 -5 6 3 10 9 15 12 12 3 -3 0 -11 -7 -18z
m-246 4 l-20 -8 20 -5 c11 -3 2 -6 -20 -6 -22 0 -31 3 -20 6 l20 5 -20 8 c-15
6 -10 8 20 8 30 0 35 -2 20 -8z m-217 -19 c2 -7 -1 -12 -8 -12 -6 0 -8 5 -5
10 8 13 -1 13 -28 -1 -21 -10 -21 -10 -2 6 21 17 36 16 43 -3z m1179 -74 c-2
-7 0 -21 5 -30 5 -11 5 -18 0 -18 -6 0 -12 8 -14 18 -5 18 0 42 9 42 2 0 3 -6
0 -12z m-1032 -27 c-27 -4 -41 -12 -43 -24 -4 -20 14 -47 31 -47 5 0 2 9 -8
20 -33 36 -6 45 67 22 42 -14 55 -21 38 -22 -24 -2 -24 -2 5 -12 17 -5 35 -10
41 -10 6 -1 9 -10 6 -20 -5 -22 11 -24 32 -2 9 8 16 11 16 6 0 -16 -29 -35
-45 -28 -8 3 -15 12 -15 20 0 9 -21 21 -55 31 -31 9 -58 22 -62 30 -6 18 -36
20 -31 3 3 -7 15 -18 27 -24 l22 -11 -23 -6 c-25 -7 -58 17 -58 43 0 26 21 40
60 39 l35 -2 -40 -6z m286 -30 c-11 -7 -11 -9 0 -13 8 -3 -5 -10 -28 -17 -34
-9 -40 -15 -36 -31 4 -14 0 -20 -11 -20 -9 0 -16 5 -16 11 0 5 5 7 10 4 6 -3
10 -2 10 4 0 5 -6 13 -12 17 -9 6 -5 10 12 15 23 6 22 7 -8 8 -18 1 -31 -3
-28 -7 2 -4 -12 -6 -32 -3 -33 4 -29 6 37 17 40 7 78 15 85 18 19 8 32 6 17
-3z m-173 -83 c-7 -19 -38 -22 -38 -4 0 10 9 16 21 16 12 0 19 -5 17 -12z
m912 -34 c0 -3 -9 -2 -20 1 -14 5 -22 1 -26 -12 -3 -10 -20 -52 -38 -93 -18
-41 -61 -146 -96 -233 -35 -86 -65 -156 -67 -154 -3 4 129 338 167 422 10 22
23 53 29 68 9 24 14 26 31 17 11 -6 20 -13 20 -16z m27 -66 c-12 -29 -12 -37
0 -53 14 -20 11 -60 -7 -100 -27 -58 -150 -365 -150 -373 0 -21 -50 -62 -77
-62 -18 0 -91 38 -203 106 -294 179 -370 223 -373 216 -1 -4 -3 -69 -2 -144 0
-84 -3 -128 -8 -115 -5 12 -7 48 -4 80 3 31 1 57 -3 57 -10 0 -70 -68 -70 -79
0 -11 56 -81 78 -97 16 -12 16 -14 -2 -45 -12 -20 -21 -56 -22 -89 -4 -83 -27
-183 -43 -188 -11 -4 -13 5 -7 49 9 64 43 194 61 229 12 23 9 29 -31 75 -24
27 -44 57 -44 65 0 9 19 35 43 58 40 40 43 46 41 91 -3 80 3 81 106 22 74 -43
361 -217 446 -271 27 -17 67 -7 87 23 8 13 47 102 86 198 104 253 97 232 82
237 -20 7 -81 63 -81 75 0 6 11 1 23 -12 19 -17 26 -19 34 -9 17 21 43 88 44
117 l2 26 4 -26 c2 -15 -2 -42 -10 -61z m-1095 -22 c7 4 8 2 4 -5 -4 -6 0 -14
9 -17 14 -6 14 -8 1 -18 -8 -6 -17 -27 -19 -46 -3 -23 -4 -17 -4 17 0 29 -3
56 -8 60 -4 5 -5 -57 -1 -137 3 -81 0 -249 -6 -375 -7 -127 -12 -263 -13 -302
0 -52 -2 -66 -8 -50 -5 12 -4 86 2 172 18 249 22 400 15 542 l-7 135 -35 -7
c-20 -4 -67 -17 -106 -29 -67 -21 -72 -24 -98 -71 -14 -28 -67 -185 -117 -350
-100 -333 -123 -454 -147 -767 l-7 -88 60 0 60 0 6 68 c13 135 67 498 82 552
9 30 34 114 55 185 21 72 45 161 54 200 9 38 21 74 26 79 19 19 22 -3 9 -55
-12 -45 -15 -49 -21 -28 -6 18 -6 15 -3 -11 6 -53 -23 -389 -45 -525 -21 -127
-64 -416 -81 -549 -5 -43 -7 -92 -3 -109 3 -16 2 -32 -4 -36 -5 -3 -24 -85
-41 -181 -35 -192 -89 -427 -100 -434 -4 -3 5 43 20 101 16 58 44 196 65 307
20 110 38 204 41 209 2 4 -1 7 -7 7 -6 0 -15 11 -22 25 -19 42 -31 16 -25 -54
3 -41 2 -55 -3 -36 -11 43 -11 98 0 115 8 12 15 9 40 -20 l31 -35 -6 31 c-3
17 -1 67 4 110 19 144 61 427 80 544 11 63 25 180 31 260 6 80 13 170 16 200
l5 55 -19 -65 c-10 -36 -38 -128 -61 -205 -32 -105 -49 -193 -72 -355 -42
-308 -52 -410 -40 -423 11 -14 42 -100 37 -104 -2 -2 -13 19 -24 47 -20 48
-23 50 -59 50 -34 0 -41 -4 -57 -35 -23 -42 -26 -158 -5 -195 13 -24 13 -24
25 29 7 30 10 59 8 63 -3 4 0 8 6 8 8 0 10 -9 7 -22 -11 -44 -20 -113 -14
-107 4 3 13 32 22 65 14 54 14 55 10 14 -3 -25 0 -52 5 -60 8 -11 9 -7 4 15
-4 23 -3 26 5 15 15 -22 13 -50 -3 -50 -8 0 -17 8 -19 18 -4 13 -5 11 -6 -5 0
-13 -7 -23 -14 -23 -62 0 -84 156 -36 252 26 52 25 86 -3 90 -21 3 -23 8 -23
73 1 84 17 237 44 400 20 123 168 631 216 739 l24 55 83 25 c46 14 99 29 118
34 29 7 36 14 39 38 l5 29 4 -28 c2 -16 8 -25 14 -21z m106 -42 c19 -5 22 -13
20 -48 l-1 -41 -4 37 c-5 43 -24 53 -81 44 -27 -4 -31 -3 -17 4 24 10 52 12
83 4z m-25 -21 c-7 -2 -19 -2 -25 0 -7 3 -2 5 12 5 14 0 19 -2 13 -5z m54
-300 c-2 -21 -4 -4 -4 37 0 41 2 58 4 38 2 -21 2 -55 0 -75z m110 -61 c-21
-23 -21 -30 0 -56 10 -12 4 -9 -12 6 l-29 27 24 26 c26 28 42 25 17 -3z m-250
-124 c-2 -18 -4 -4 -4 32 0 36 2 50 4 33 2 -18 2 -48 0 -65z m150 -35 c-2 -21
-4 -6 -4 32 0 39 2 55 4 38 2 -18 2 -50 0 -70z m139 -406 c2 -389 13 -618 39
-768 33 -197 48 -267 66 -319 34 -94 34 -90 7 -90 -13 0 -29 5 -34 10 -6 6
-48 18 -95 28 l-84 19 0 384 0 384 5 -379 5 -379 85 -23 c47 -12 96 -25 109
-29 21 -7 23 -6 16 11 -25 59 -45 129 -60 209 -36 202 -45 263 -55 403 -17
221 -21 922 -6 922 0 0 2 -172 2 -383z m-299 286 c-3 -10 -5 -4 -5 12 0 17 2
24 5 18 2 -7 2 -21 0 -30z m170 -70 c-2 -21 -4 -4 -4 37 0 41 2 58 4 38 2 -21
2 -55 0 -75z m-250 45 c-3 -8 -6 -5 -6 6 -1 11 2 17 5 13 3 -3 4 -12 1 -19z
m70 -80 c-3 -7 -5 -2 -5 12 0 14 2 19 5 13 2 -7 2 -19 0 -25z m190 -155 c-2
-21 -4 -4 -4 37 0 41 2 58 4 38 2 -21 2 -55 0 -75z m-210 5 c-3 -8 -6 -5 -6 6
-1 11 2 17 5 13 3 -3 4 -12 1 -19z m-10 -60 c-3 -8 -6 -5 -6 6 -1 11 2 17 5
13 3 -3 4 -12 1 -19z m40 -150 c-3 -8 -6 -5 -6 6 -1 11 2 17 5 13 3 -3 4 -12
1 -19z m-30 -4 c-3 -3 -12 -4 -19 -1 -8 3 -5 6 6 6 11 1 17 -2 13 -5z m196
-11 c-7 -2 -21 -2 -30 0 -10 3 -4 5 12 5 17 0 24 -2 18 -5z m24 -100 c-3 -10
-5 -4 -5 12 0 17 2 24 5 18 2 -7 2 -21 0 -30z m-179 -50 c-15 -2 -42 -2 -60 0
-18 2 -6 4 27 4 33 0 48 -2 33 -4z m75 0 c-7 -2 -21 -2 -30 0 -10 3 -4 5 12 5
17 0 24 -2 18 -5z m7 -17 c0 -2 -11 -6 -25 -8 -14 -3 -25 -1 -25 3 0 5 11 9
25 9 14 0 25 -2 25 -4z m-33 -113 c-3 -10 -5 -4 -5 12 0 17 2 24 5 18 2 -7 2
-21 0 -30z m120 -105 c-2 -18 -4 -6 -4 27 0 33 2 48 4 33 2 -15 2 -42 0 -60z
m-667 -13 c0 -11 -4 -25 -8 -32 -4 -6 -7 8 -7 32 0 24 3 38 7 32 4 -7 8 -21 8
-32z m717 -12 c-3 -10 -5 -4 -5 12 0 17 2 24 5 18 2 -7 2 -21 0 -30z m20 -160
c-3 -10 -5 -2 -5 17 0 19 2 27 5 18 2 -10 2 -26 0 -35z m-470 15 c-3 -8 -6 -5
-6 6 -1 11 2 17 5 13 3 -3 4 -12 1 -19z m480 -75 c-3 -10 -5 -4 -5 12 0 17 2
24 5 18 2 -7 2 -21 0 -30z m-80 -95 c-2 -13 -4 -5 -4 17 -1 22 1 32 4 23 2
-10 2 -28 0 -40z m-486 -62 c-11 -25 -22 -46 -26 -46 -3 0 2 17 11 38 9 20 18
43 21 50 3 7 8 11 10 8 3 -2 -4 -25 -16 -50z m486 -103 c-2 -21 -4 -6 -4 32 0
39 2 55 4 38 2 -18 2 -50 0 -70z m-537 -3 c-6 -11 -13 -20 -16 -20 -2 0 0 9 6
20 6 11 13 20 16 20 2 0 0 -9 -6 -20z m559 -552 c0 -131 -2 -238 -6 -238 -5 0
-8 170 -9 378 0 258 2 333 7 237 3 -77 7 -247 8 -377z m244 444 c3 8 6 6 6 -5
1 -22 -30 -20 -37 3 -4 13 -3 13 10 2 13 -10 17 -10 21 0z m-95 -895 c61 -38
112 -75 112 -82 0 -24 -390 -29 -413 -6 -14 14 -4 149 12 163 12 11 13 10 6
-7 -13 -29 -18 -136 -8 -146 12 -12 240 -19 328 -11 l70 7 -128 79 c-70 44
-130 83 -134 89 -8 13 25 -5 155 -86z m-501 57 c-3 -3 -12 -4 -19 -1 -8 3 -5
6 6 6 11 1 17 -2 13 -5z"/>
<path d="M735 4098 c-24 -24 -46 -54 -50 -68 -6 -23 -5 -22 13 6 11 16 39 47
63 67 23 20 37 37 30 37 -7 0 -32 -19 -56 -42z"/>
<path d="M1030 4005 c14 -8 32 -14 40 -14 8 0 0 6 -19 14 -42 19 -54 19 -21 0z"/>
<path d="M1130 3915 c7 -8 17 -15 22 -15 6 0 5 7 -2 15 -7 8 -17 15 -22 15 -6
0 -5 -7 2 -15z"/>
<path d="M1025 3900 c-20 -22 -30 -126 -13 -136 6 -4 8 2 3 17 l-7 24 21 -22
c22 -24 39 -27 79 -17 19 6 22 11 17 35 -4 19 -3 29 5 29 6 0 9 -4 6 -8 -2 -4
-1 -14 5 -22 6 -11 9 -1 9 31 0 35 -5 51 -23 67 -29 28 -78 29 -102 2z"/>
<path d="M1053 3703 c9 -2 23 -2 30 0 6 3 -1 5 -18 5 -16 0 -22 -2 -12 -5z"/>
<path d="M976 3670 c11 -39 54 -58 54 -22 0 11 -3 13 -8 5 -9 -14 -24 -6 -41
22 -11 18 -11 18 -5 -5z"/>
<path d="M828 3363 c6 -2 18 -2 25 0 6 3 1 5 -13 5 -14 0 -19 -2 -12 -5z"/>
<path d="M665 3215 c-9 -31 -15 -58 -13 -60 2 -3 12 20 22 51 10 31 16 58 13
60 -2 2 -12 -21 -22 -51z"/>
<path d="M930 3265 c0 -14 63 -166 67 -161 2 2 -12 41 -31 87 -19 46 -35 80
-36 74z"/>
<path d="M611 3036 c0 -11 13 -41 30 -67 33 -53 32 -64 -15 -108 -14 -14 -26
-34 -26 -45 0 -25 31 -138 37 -132 2 2 -4 33 -13 69 l-18 65 37 41 c20 23 37
49 37 60 0 10 -13 36 -29 58 -16 22 -31 49 -34 59 -5 19 -5 19 -6 0z"/>
<path d="M672 2560 c0 -8 4 -26 8 -40 6 -20 8 -21 8 -5 0 11 -3 29 -8 40 -5
12 -8 14 -8 5z"/>
<path d="M686 1992 c-7 -12 -24 -297 -32 -530 l-6 -203 67 3 67 3 -1 335 c-1
184 -4 350 -7 368 -6 29 -9 32 -45 32 -21 0 -40 -4 -43 -8z m11 -89 c-3 -10
-5 -2 -5 17 0 19 2 27 5 18 2 -10 2 -26 0 -35z m70 -280 c-2 -21 -4 -6 -4 32
0 39 2 55 4 38 2 -18 2 -50 0 -70z m0 -265 c-2 -35 -3 -7 -3 62 0 69 1 97 3
63 2 -35 2 -91 0 -125z"/>
<path d="M471 1524 c0 -11 3 -14 6 -6 3 7 2 16 -1 19 -3 4 -6 -2 -5 -13z"/>
<path d="M1032 1480 c0 -8 6 -31 13 -50 7 -19 13 -28 13 -20 0 8 -6 31 -13 50
-7 19 -13 28 -13 20z"/>
<path d="M1071 1360 c0 -8 9 -31 20 -50 15 -26 18 -29 13 -10 -9 35 -33 78
-33 60z"/>
<path d="M832 428 c3 -47 6 -53 27 -56 12 -2 34 -1 48 2 22 6 24 11 21 54 l-3
47 -48 3 -48 3 3 -53z"/>
<path d="M517 453 c-13 -12 -7 -70 7 -83 8 -6 25 -10 38 -8 20 3 23 10 26 51
l3 47 -34 0 c-18 0 -37 -3 -40 -7z"/>
<path d="M760 3979 c0 -5 5 -7 10 -4 6 3 10 8 10 11 0 2 -4 4 -10 4 -5 0 -10
-5 -10 -11z"/>
<path d="M769 3947 c7 -7 18 -7 33 0 20 9 20 10 -10 10 -22 0 -29 -4 -23 -10z"/>
<path d="M1599 3823 c-20 -2 -45 -13 -55 -24 -15 -17 -16 -22 -3 -45 12 -24
17 -26 58 -20 24 3 53 6 65 6 18 0 21 6 22 48 1 26 -1 38 -3 27 -7 -28 -19
-39 -28 -24 -5 8 -4 10 3 5 8 -5 12 0 12 13 0 14 -6 20 -17 19 -10 -1 -34 -3
-54 -5z m35 -29 c9 -8 16 -23 16 -32 0 -12 -4 -9 -13 8 -8 14 -19 24 -26 22
-7 -1 -10 2 -6 8 8 13 11 13 29 -6z m-54 -13 c0 -6 -5 -13 -12 -17 -7 -5 -8
-3 -3 6 6 10 4 12 -9 7 -10 -4 -15 -3 -11 3 8 13 35 13 35 1z m43 -17 c-2 -5
-11 -9 -22 -10 -12 -1 -17 4 -14 11 5 15 39 13 36 -1z"/>
<path d="M1753 3625 c-6 -7 -7 -18 -3 -25 6 -9 11 -7 20 10 6 12 14 19 17 16
3 -2 -4 -17 -14 -33 -11 -15 -23 -34 -27 -40 -9 -16 40 -63 65 -63 28 0 23 27
-10 51 -29 21 -29 23 -15 51 9 17 13 33 9 36 -11 11 -30 10 -42 -3z"/>
<path d="M1885 3620 c-13 -21 -24 -70 -14 -65 5 4 10 0 11 -7 0 -7 2 -17 2
-23 3 -21 22 -42 43 -47 18 -5 24 0 33 25 13 38 -1 57 -27 36 -16 -12 -15 -11
1 9 20 23 10 31 -14 10 -8 -7 -7 -4 3 8 15 19 16 23 3 33 -8 7 -21 9 -28 5
-10 -6 -9 -3 1 9 8 10 9 17 3 17 -6 0 -14 -5 -17 -10z m22 -50 c-13 -19 -15
-19 -21 -4 -4 9 -4 19 -1 22 3 3 5 -1 5 -9 1 -10 4 -8 11 4 6 10 13 16 16 13
3 -2 -2 -14 -10 -26z m33 -60 c-13 -24 -23 -25 -40 -5 -10 12 -8 14 9 10 11
-2 23 0 26 6 12 18 16 9 5 -11z"/>
<path d="M550 3575 l-23 -25 45 0 c26 0 54 -3 64 -7 14 -5 16 -2 12 15 -3 11
-1 23 6 26 6 2 -8 3 -31 2 -23 -2 -40 1 -37 5 11 19 -14 8 -36 -16z"/>
<path d="M830 3550 c8 -5 22 -9 30 -9 10 0 8 3 -5 9 -27 12 -43 12 -25 0z"/>
<path d="M1048 3543 c6 -2 18 -2 25 0 6 3 1 5 -13 5 -14 0 -19 -2 -12 -5z"/>
<path d="M1823 3319 c-15 -15 0 -39 23 -39 17 0 18 11 1 33 -10 14 -15 15 -24
6z"/>
<path d="M992 2632 c-6 -26 -14 -67 -17 -92 l-5 -45 10 40 c5 22 14 62 21 88
6 27 9 50 7 52 -2 3 -10 -17 -16 -43z"/>
<path d="M556 3074 c-4 -14 -5 -28 -3 -31 3 -2 8 8 11 23 4 14 5 28 3 31 -3 2
-8 -8 -11 -23z"/>
<path d="M278 2003 c6 -2 12 -9 12 -14 0 -6 -4 -7 -10 -4 -5 3 -10 -3 -10 -14
0 -17 6 -21 30 -21 27 0 30 3 30 30 0 27 -3 30 -32 29 -18 0 -27 -3 -20 -6z
m35 -40 c-7 -2 -19 -2 -25 0 -7 3 -2 5 12 5 14 0 19 -2 13 -5z"/>
</g>
</svg>
