<?xml version="1.0" standalone="no"?>
<!DOCTYPE svg PUBLIC "-//W3C//DTD SVG 20010904//EN"
 "http://www.w3.org/TR/2001/REC-SVG-20010904/DTD/svg10.dtd">
<svg version="1.0" xmlns="http://www.w3.org/2000/svg"
 width="254.000000pt" height="254.000000pt" viewBox="0 0 254.000000 254.000000"
 preserveAspectRatio="xMidYMid meet">
<metadata>
Created by potrace 1.16, written by Peter Selinger 2001-2019
</metadata>
<g transform="translate(0.000000,254.000000) scale(0.100000,-0.100000)"
fill="#000000" stroke="none">
<path d="M0 1270 l0 -1270 1270 0 1270 0 0 1270 0 1270 -1270 0 -1270 0 0
-1270z m1970 345 c0 -28 -32 -96 -84 -178 -18 -29 -47 -90 -66 -136 -18 -46
-49 -104 -69 -130 -20 -25 -52 -72 -70 -103 -94 -157 -204 -268 -326 -330 -57
-29 -64 -30 -144 -25 -152 11 -241 77 -378 279 -108 158 -141 180 -235 157
-42 -10 -64 -23 -109 -68 -82 -83 -122 -150 -178 -302 -68 -188 -91 -268 -91
-323 0 -50 -22 -66 -34 -23 -16 59 0 125 86 367 39 110 64 163 105 222 93 134
156 172 280 173 61 0 64 -2 109 -45 25 -25 77 -91 115 -147 39 -56 88 -119
109 -141 57 -57 146 -101 219 -108 55 -6 67 -4 123 24 93 46 193 143 273 264
37 57 76 114 86 128 42 56 87 140 118 218 18 45 37 85 42 88 5 3 27 41 49 85
41 80 70 103 70 54z"/>
<path d="M1916 1560 c-21 -41 -45 -82 -52 -91 -8 -9 -37 -67 -64 -128 -27 -62
-63 -131 -80 -154 -17 -23 -62 -90 -101 -150 -84 -127 -184 -224 -278 -269
-58 -28 -70 -30 -130 -24 -81 7 -172 50 -229 106 -22 22 -68 82 -103 133 -81
121 -153 195 -197 203 -59 11 -144 -14 -195 -58 -81 -69 -151 -180 -203 -324
-87 -238 -109 -335 -84 -374 7 -11 10 -3 10 28 0 56 18 117 93 322 64 176 86
215 169 303 43 45 64 59 111 72 111 32 149 9 260 -153 135 -200 226 -269 370
-279 98 -7 123 3 238 95 93 73 184 186 247 302 7 13 29 44 48 67 20 24 51 81
69 127 19 46 48 105 64 132 57 92 82 146 79 167 -3 17 -13 3 -42 -53z"/>
</g>
</svg>
